<svg xmlns="http://www.w3.org/2000/svg" width="111.966" height="100.721"><g fill="#787c99"><path data-name="パス 4" d="M0 0h10.437v69.266h41.275v8.54H0zm84.258 18.787c-10.675-.142-21.349 6.642-24.67 16.937-4.744 11.861-2.562 26.758 6.737 35.819 9.014 7.5 22.583 8.065 32.735 2.752 6.974-3.7 11.386-11.054 12.335-18.787 1.234-8.065.617-16.89-3.321-24.2A26.125 26.125 0 0085.3 18.835l-1.044-.142zm.949 8.255a16.647 16.647 0 0116.131 13.663c2.372 8.682.949 19.309-6.168 25.429-6.642 5.408-17.317 4.649-22.772-2.04-6.642-7.116-6.642-18.028-3.226-26.568A16.469 16.469 0 0184.5 27.09h.854z"/><path data-name="パス 5" d="M0 88.86h111.965v11.861H0z"/></g></svg>
