<svg version="1.1" id="_x32_" xmlns="http://www.w3.org/2000/svg" x="0" y="0" viewBox="0 0 512 512" style="width:256px;height:256px" xml:space="preserve" opacity="1"><style>.st0{fill:#4b4b4b}</style><path class="st0" d="M322.952 241.902l30.273-26.424c28.905-25.185 45.624-60.828 45.606-98.302v-5.832c.018-16.848-3.712-32.634-10.536-46.522-10.245-20.875-27.272-37.251-47.847-48.172C319.83 5.696 295.603 0 269.913 0h-27.81c-34.224.009-65.968 10.117-89.818 29.366-11.895 9.604-21.747 21.551-28.562 35.456-6.833 13.888-10.562 29.674-10.553 46.522v5.832c0 37.474 16.718 73.117 45.624 98.302l30.255 26.424c2.07 1.839 2.908 3.935 2.934 5.97v16.249c-.009 2.035-.872 4.138-2.925 5.969l-30.264 26.416c-28.905 25.194-45.624 60.837-45.624 98.328v5.816c-.009 16.855 3.72 32.642 10.553 46.53 10.228 20.874 27.254 37.234 47.847 48.163 20.61 10.946 44.844 16.65 70.534 16.658h27.81c34.224-.025 65.968-10.117 89.819-29.366 11.887-9.62 21.747-21.568 28.563-35.455 6.824-13.888 10.553-29.675 10.536-46.53v-5.816c.018-37.49-16.702-73.134-45.624-98.328l-30.255-26.407c-2.062-1.839-2.908-3.942-2.916-5.978v-16.249c.006-2.035.853-4.131 2.915-5.97zm1.308 223.004c-15.034 8.004-33.779 12.622-54.347 12.622h-27.81c-27.459.008-51.558-8.227-68.131-21.688-8.313-6.747-14.829-14.726-19.31-23.868-4.481-9.133-7.012-19.472-7.012-31.324v-5.816c0-27.186 12.041-53.312 33.805-72.356l30.273-26.408c9.193-7.996 14.734-19.626 14.726-31.949V247.87c.009-12.331-5.532-23.962-14.743-31.958l-30.255-26.407c-21.764-19.028-33.805-45.154-33.805-72.331v-5.832c0-11.845 2.532-22.183 7.012-31.334 6.722-13.665 18.018-24.886 33.078-32.915 15.052-8.005 33.797-12.631 54.363-12.623h27.81c27.451-.025 51.558 8.236 68.132 21.688 8.312 6.738 14.812 14.718 19.292 23.85 4.481 9.151 7.012 19.49 7.021 31.334v5.832c-.009 27.177-12.041 53.303-33.814 72.331l-30.255 26.424c-9.193 7.979-14.752 19.61-14.735 31.941v16.249c-.009 12.323 5.524 23.953 14.735 31.949l30.255 26.408c21.773 19.044 33.805 45.17 33.814 72.356v5.816c-.009 11.852-2.54 22.192-7.021 31.324-6.705 13.684-18.01 24.904-33.078 32.934z" fill="#787c99"/><path class="st0" d="M311.74 365.868a41.96 41.96 0 01-29.623-12.272l-17.266-17.283c-4.892-4.883-12.802-4.883-17.684 0l-17.284 17.283a41.93 41.93 0 01-29.623 12.272h-32.146c-3.66 9.168-5.687 18.89-5.687 28.964v5.816c0 9.141 1.805 17.283 5.498 24.842 3.498 7.098 8.655 13.452 15.342 18.874 14.401 11.69 35.806 18.386 58.742 18.386h27.904c17.643 0 34.036-3.763 47.402-10.895 12.391-6.602 21.413-15.487 26.767-26.39 3.686-7.534 5.49-15.658 5.499-24.835v-5.798c0-10.074-2.027-19.806-5.687-28.964H311.74z" fill="#787c99"/></svg>
