<svg xmlns="http://www.w3.org/2000/svg" viewBox="0 0 512 512" style="width:256px;height:256px"><path d="M459.279 63.989H193.251c-20.346 0-39.7 8.82-53.054 24.186L4.314 244.473c-5.752 6.61-5.752 16.443 0 23.06l135.883 156.306a70.303 70.303 0 0053.054 24.172h266.028c29.116 0 52.721-23.605 52.721-52.721V116.716c0-29.123-23.605-52.727-52.721-52.727zm-98.698 274.712l-51.687-51.672-51.672 51.658-31.03-31.015 51.673-51.687L226.2 204.32l31.022-31.022 51.672 51.673 51.679-51.687 31.022 31.036-51.687 51.679 51.701 51.673-31.028 31.029z" fill="#787c99"/></svg>
