<svg xmlns="http://www.w3.org/2000/svg" width="204.78" height="110.08"><g data-name="グループ 2"><g data-name="パス 1" fill="none"><path d="M33.08 0s35.958 4.2 70.458 4.2A608.976 608.976 0 00171.08 0v65a504.8 504.8 0 00-67.542-5.091C69.038 59.909 33.08 65 33.08 65z"/><path d="M39.08 6.668v51.506c12.138-1.476 38.513-4.265 64.458-4.265 25.546 0 49.98 2.704 61.542 4.2V6.72c-11.546 1.225-36.277 3.486-61.542 3.486-25.645 0-52.338-2.33-64.458-3.537M33.08 0s35.958 4.205 70.458 4.205S171.08 0 171.08 0v65s-33.042-5.091-67.542-5.091S33.08 65 33.08 65V0z" fill="#ffffff"/></g><path data-name="パス 6" d="M11.22 96.67a2.944 2.944 0 01-3.33 2.94c-2.49 0-3.27-1.26-3.27-5.31v-3.96c0-4.02.78-5.31 3.24-5.31 1.92 0 2.88.9 3.12 2.94l4.23-.3c-.21-4.35-2.55-6.36-7.41-6.36-2.88 0-4.68.66-6.09 2.22C.45 84.94 0 86.68 0 89.98v4.68c0 3.06.39 4.71 1.41 6.09 1.35 1.8 3.3 2.58 6.39 2.58 2.88 0 4.92-.66 6.21-2.01a5.716 5.716 0 001.53-4.14zm7.35-.27c0 4.92 1.98 6.93 6.84 6.93 4.89 0 6.87-2.01 6.87-6.93v-2.34c0-4.92-2.01-6.96-6.84-6.96-4.86 0-6.87 2.04-6.87 6.96zm9.33-.33c0 2.73-.69 3.78-2.46 3.78-1.8 0-2.49-1.05-2.49-3.78v-1.68c0-2.76.69-3.81 2.49-3.81 1.77 0 2.46 1.05 2.46 3.81zM45.45 103h3.36V81.58h-4.38V88a2.7 2.7 0 00-.27-.15c-.42-.24-.42-.24-.54-.3a5.951 5.951 0 00-2.49-.45c-4.02 0-5.76 2.1-5.76 6.99v2.25c0 4.95 1.71 6.99 5.85 6.99a5.123 5.123 0 003.72-1.11 1.505 1.505 0 00.24-.18zm-5.73-8.58c0-2.67.72-3.84 2.34-3.84s2.37.93 2.37 2.97v3.33c0 2.04-.72 2.97-2.34 2.97-1.68 0-2.37-1.14-2.37-3.84zm13.17-8.97h4.38v-4.11h-4.38zm0 17.55h4.38V87.46h-4.38zm8.46 0h4.38v-8.07c0-3.03.6-4.11 2.31-4.11 1.59 0 2.19 1.05 2.19 3.81V103h4.38v-8.88a11.591 11.591 0 00-.45-4.02c-.75-1.95-2.52-3-5.1-3a4.936 4.936 0 00-4.08 1.53l-.36-1.17h-3.27zm25.74-.09c-.06 2.7-.9 3.81-2.88 3.81a2.714 2.714 0 01-2.67-1.65l-3.24 1.8c1.14 2.19 3.06 3.21 6.06 3.21 2.49 0 4.47-.75 5.64-2.16 1.02-1.23 1.47-2.91 1.47-5.52V87.46h-3.36l-.42.87a5.425 5.425 0 00-3.84-1.23c-4.11 0-5.82 2.07-5.82 6.99v2.25c0 4.92 1.71 6.99 5.76 6.99a5.628 5.628 0 003.3-.84zm-4.71-8.49c0-2.67.72-3.84 2.34-3.84s2.37.93 2.37 2.97v3.33c0 2.04-.75 2.97-2.34 2.97-1.68 0-2.37-1.14-2.37-3.84zm23.16 8.58h4.62V85.33h5.67v-3.75H99.84v3.75h5.7zm13.17 0h4.38v-8.37c0-2.67.69-3.81 2.28-3.81 1.56 0 2.22 1.08 2.22 3.6V103h4.38v-8.88a11.591 11.591 0 00-.45-4.02c-.72-1.92-2.52-3-5.01-3a5.63 5.63 0 00-3.42.93v-6.45h-4.38zm21.12-6.66h9.24v-1.5c0-5.52-1.95-7.74-6.81-7.74-2.64 0-4.44.72-5.52 2.19-.93 1.2-1.29 2.79-1.29 5.55v.99c0 5.37 1.92 7.5 6.78 7.5 3.51 0 5.43-.9 6.75-3.18l-3.21-1.83a3.171 3.171 0 01-3.06 1.65c-1.89 0-2.88-1.11-2.88-3.24zm-.03-2.97v-.36a2.432 2.432 0 012.55-2.73 2.42 2.42 0 012.61 2.73v.36zm20.61.12h-2.85c-4.41 0-5.82 1.17-5.82 4.92 0 3.57 1.44 4.92 5.25 4.92 2.01 0 3.15-.33 4.11-1.14l.27.81h3.42v-9.21a9.414 9.414 0 00-.54-3.9c-.81-1.8-2.79-2.79-5.67-2.79-2.85 0-5.01.96-6.36 2.88l3 2.1a3.532 3.532 0 012.91-1.5c1.56 0 2.28.75 2.28 2.4zm0 2.88v1.26c0 1.89-.51 2.43-2.28 2.43-1.68 0-2.28-.45-2.28-1.77 0-1.38.63-1.92 2.25-1.92zm8.76-5.46v4.98c-.03 5.91 1.14 7.11 6.93 7.11h.51v-3.54h-.36c-2.07.06-2.7-.69-2.7-3.12v-5.43h3.09v-3.45h-3.09v-4.38h-4.11l-.27 4.38h-1.68v3.45zM179.52 103h4.38v-7.47c0-3.3.6-4.68 2.04-4.68a3.137 3.137 0 012.04.87l1.89-3.57a6.573 6.573 0 00-3.48-1.05 3.7 3.7 0 00-2.97 1.35l-.57-.99h-3.33zm16.02-6.66h9.24v-1.5c0-5.52-1.95-7.74-6.81-7.74-2.64 0-4.44.72-5.52 2.19-.93 1.2-1.29 2.79-1.29 5.55v.99c0 5.37 1.92 7.5 6.78 7.5 3.51 0 5.43-.9 6.75-3.18l-3.21-1.83a3.171 3.171 0 01-3.06 1.65c-1.89 0-2.88-1.11-2.88-3.24zm-.03-2.97v-.36a2.432 2.432 0 012.55-2.73 2.42 2.42 0 012.61 2.73v.36z" fill="#ffffff"/><path data-name="パス 2" d="M66.76 46h17.72l.76-4.24H72.76l4.28-24.32H71.8zm25.52-23.68h4.96l.88-5.12h-4.96zM88.08 46h4.96l3.64-20.52h-5zm15.68 0h4.72l10.72-20.52h-5.16l-7 14.48-1.84-14.48h-4.92zm20.88-9.04h12.56a24.069 24.069 0 00.64-4.88c0-4.72-2.6-7.04-7.96-7.04-3.16 0-5.48.84-7.12 2.64-1.36 1.48-2.08 3.28-2.68 6.68l-.24 1.48a19.821 19.821 0 00-.4 3.8c0 4.6 2.64 6.8 8.2 6.8 4 0 6.28-.92 8.24-3.36l-3.24-2.64a5.3 5.3 0 01-4.52 2.12c-2.44 0-3.76-1.2-3.76-3.44a7.282 7.282 0 01.16-1.52zm.56-3.48l.08-.4c.44-2.76 2.24-4.4 4.72-4.4 2.24 0 3.32 1.04 3.32 3.16a5.934 5.934 0 01-.2 1.64z" fill="#ffffff"/></g></svg>
