<svg xmlns="http://www.w3.org/2000/svg" width="443.49" height="65"><g data-name="グループ 1"><g data-name="パス 1" fill="none"><path d="M0 0s35.958 4.2 70.458 4.2A608.976 608.976 0 00138 0v65a504.8 504.8 0 00-67.542-5.091C35.958 59.909 0 65 0 65z"/><path d="M6 6.668v51.506c12.138-1.476 38.513-4.265 64.458-4.265 25.546 0 49.98 2.704 61.542 4.2V6.72c-11.546 1.225-36.277 3.486-61.542 3.486-25.645 0-52.338-2.33-64.458-3.537M0 0s35.958 4.205 70.458 4.205S138 0 138 0v65s-33.042-5.091-67.542-5.091S0 65 0 65V0z" fill="#606D80"/></g><path data-name="パス 3" d="M174.984 40.6c-.42 2.982-2.142 4.41-5.208 4.41-3.948 0-5.292-2.1-5.292-8.148v-5.628c0-6.006 1.344-8.148 5.208-8.148 2.982 0 4.578 1.428 4.956 4.41l5.04-.378c-.294-5.712-3.612-8.484-10.08-8.484-3.864 0-6.384.966-8.274 3.15-1.722 1.974-2.352 4.41-2.352 9.072v6.384c0 4.242.546 6.594 1.932 8.526 1.806 2.52 4.536 3.696 8.694 3.696 6.72 0 10.206-2.73 10.5-8.274zm10.038-.756c0 6.762 2.772 9.618 9.324 9.618 6.51 0 9.282-2.856 9.282-9.618V36.61c0-6.762-2.772-9.618-9.282-9.618-6.552 0-9.324 2.856-9.324 9.618zm13.4-.378c0 4.116-1.176 5.8-4.074 5.8-2.94 0-4.116-1.68-4.116-5.8v-2.52c0-4.116 1.176-5.8 4.116-5.8 2.9 0 4.074 1.68 4.074 5.8zM222.7 49h4.032V19.012h-5.212v9.45a3.047 3.047 0 01-.378-.21c-.546-.42-.546-.42-.8-.5a8.76 8.76 0 00-3.822-.756c-5.586 0-8.022 2.94-8.022 9.66V39.8c0 6.762 2.436 9.66 8.106 9.66 2.6 0 4.074-.462 5.5-1.722l.294-.252zm-9.03-11.97c0-4.074 1.218-5.88 3.906-5.88s3.948 1.6 3.948 4.956v4.242c0 3.36-1.26 4.914-3.948 4.914s-3.906-1.806-3.906-5.838zm19.358-12.936h5.208V18.76h-5.208zm0 24.906h5.208V27.454h-5.208zm11.466 0h5.206V37.87c0-4.7 1.05-6.426 3.864-6.426 2.6 0 3.612 1.638 3.612 5.8V49h5.208V36.652a16.012 16.012 0 00-.63-5.5c-1.008-2.73-3.444-4.158-7.14-4.158-2.772 0-4.368.672-5.754 2.352l-.462-1.89h-3.904zm36.246.042c-.084 4.074-1.47 5.8-4.62 5.8a4.176 4.176 0 01-4.074-2.268l-3.864 2.226c1.638 2.81 4.118 4.07 8.106 4.07 6.552 0 9.66-3.36 9.66-10.416v-21h-4.032l-.462 1.428c-1.428-1.344-3.066-1.89-5.628-1.89-5.67 0-8.106 2.9-8.106 9.66V39.8c0 6.72 2.436 9.66 7.938 9.66a7.828 7.828 0 005.124-1.47zm-7.854-12.012c0-4.074 1.218-5.88 3.906-5.88s3.948 1.6 3.948 4.956v4.242c0 3.318-1.26 4.914-3.948 4.914s-3.906-1.806-3.906-5.838zM306.444 49h5.5V23.506h8.148v-4.494h-21.84v4.494h8.19zm18.228 0h5.208V37.576c0-4.368 1.134-6.132 3.864-6.132 2.52 0 3.612 1.638 3.612 5.586V49h5.208V36.652a16.012 16.012 0 00-.63-5.5c-1.008-2.73-3.444-4.158-7.056-4.158a7.252 7.252 0 00-5 1.554v-9.534h-5.208zm28.518-9.492h13.23v-1.89c0-7.518-2.688-10.626-9.24-10.626s-9.24 3.108-9.24 10.626v1.512c0 7.224 2.814 10.332 9.324 10.332 4.536 0 7.056-1.176 8.862-4.074l-3.826-2.226a4.831 4.831 0 01-4.452 2.226c-3.066 0-4.662-1.806-4.662-5.208zm-.042-3.612v-.462c0-2.9 1.512-4.536 4.158-4.536 2.73 0 4.2 1.6 4.2 4.536v.462zm29.82.084H378.6c-6.09 0-8.064 1.638-8.064 6.8 0 4.83 2.016 6.678 7.35 6.678 2.94 0 4.494-.462 5.88-1.722L384.1 49h4.074V35.938c0-2.688-.21-4.116-.8-5.334-1.134-2.352-3.78-3.612-7.56-3.612s-6.552 1.218-8.484 3.738l3.612 2.562a5.351 5.351 0 014.368-2.142c2.52 0 3.654 1.176 3.654 3.864zm0 3.528v2.268c0 1.47-.084 2.016-.462 2.52-.546.8-1.6 1.176-3.276 1.176-2.814 0-3.738-.714-3.738-2.9s1.05-3.066 3.738-3.066zM394.9 31.57v8.442c0 7.434 1.508 8.988 8.732 8.988h.756v-4.242h-.588c-2.856.042-3.7-.966-3.7-4.242V31.57h4.284v-4.116H400.1v-6.3h-4.91l-.294 6.3h-2.436v4.116zM409.008 49h5.208V38.584c0-5.04.966-7.1 3.36-7.1a4.381 4.381 0 012.856 1.134l2.268-4.284a9 9 0 00-4.62-1.344 5.381 5.381 0 00-4.452 2.016L413 27.454h-3.99zm21.252-9.492h13.23v-1.89c0-7.518-2.688-10.626-9.24-10.626s-9.24 3.108-9.24 10.626v1.512c0 7.224 2.814 10.332 9.324 10.332 4.536 0 7.056-1.176 8.862-4.074l-3.822-2.226a4.831 4.831 0 01-4.452 2.226c-3.066 0-4.662-1.806-4.662-5.208zm-.042-3.612v-.462c0-2.9 1.512-4.536 4.158-4.536 2.73 0 4.2 1.6 4.2 4.536v.462z" fill="#606D80"/><path data-name="パス 2" d="M33.68 46H51.4l.76-4.24H39.68l4.28-24.32h-5.24zM59.2 22.32h4.96l.88-5.12h-4.96zM55 46h4.96l3.64-20.52h-5zm15.68 0h4.72l10.72-20.52h-5.16l-7 14.48-1.84-14.48H67.2zm20.88-9.04h12.56a24.069 24.069 0 00.64-4.88c0-4.72-2.6-7.04-7.96-7.04-3.16 0-5.48.84-7.12 2.64-1.36 1.48-2.08 3.28-2.68 6.68l-.24 1.48a19.821 19.821 0 00-.4 3.8c0 4.6 2.64 6.8 8.2 6.8 4 0 6.28-.92 8.24-3.36l-3.24-2.64a5.3 5.3 0 01-4.52 2.12c-2.44 0-3.76-1.2-3.76-3.44a7.282 7.282 0 01.16-1.52zm.56-3.48l.08-.4c.44-2.76 2.24-4.4 4.72-4.4 2.24 0 3.32 1.04 3.32 3.16a5.934 5.934 0 01-.2 1.64z" fill="#606D80"/></g></svg>
